<?xml version="1.0" encoding="UTF-8"?>
<svg width="100pt" height="100pt" version="1.1" viewBox="0 0 100 100" xmlns="http://www.w3.org/2000/svg">
 <g>
  <path d="m15.965 68.293c6.2109 0 11.262-5.0508 11.262-11.262s-5.0547-11.262-11.262-11.262c-6.2109 0-11.262 5.0547-11.262 11.262 0 6.2109 5.0508 11.262 11.262 11.262zm0-17.945c3.6875 0 6.6875 3 6.6875 6.6875s-3 6.6836-6.6875 6.6836c-3.6836 0-6.6836-3-6.6836-6.6836-0.003906-3.6914 2.9961-6.6875 6.6836-6.6875z"/>
  <path d="m32.5 34.691h1.6523l-3.2695 3.2695c-0.65625 0.65625-0.85156 1.6367-0.49609 2.4922 0.35156 0.85547 1.1875 1.4141 2.1133 1.4141h7.1797c1.2656 0 2.2891-1.0234 2.2891-2.2891s-1.0234-2.2891-2.2891-2.2891h-1.6523l3.2734-3.2695c0.65625-0.65625 0.85156-1.6367 0.49609-2.4922-0.35547-0.85547-1.1875-1.4102-2.1133-1.4102l-7.1836-0.003907c-1.2656 0-2.2891 1.0234-2.2891 2.2891s1.0234 2.2891 2.2891 2.2891z"/>
  <path d="m49.25 29.906h4.0469l-5.6641 5.6641c-0.65625 0.65625-0.85156 1.6367-0.49609 2.4922 0.35156 0.85547 1.1875 1.4141 2.1133 1.4141h9.5742c1.2656 0 2.2891-1.0234 2.2891-2.2891s-1.0234-2.2891-2.2891-2.2891h-4.0469l5.6641-5.6641c0.65234-0.65625 0.85156-1.6367 0.49609-2.4922-0.35156-0.85547-1.1875-1.4102-2.1133-1.4102h-9.5742c-1.2656 0-2.2891 1.0234-2.2891 2.2891 0 1.2617 1.0234 2.2852 2.2891 2.2852z"/>
  <path d="m66 25.117h6.4414l-8.0586 8.0625c-0.65625 0.65625-0.85156 1.6367-0.49609 2.4922 0.35156 0.85547 1.1875 1.4141 2.1133 1.4141h11.965c1.2656 0 2.2891-1.0234 2.2891-2.2891s-1.0234-2.2891-2.2891-2.2891h-6.4414l8.0586-8.0625c0.65625-0.65625 0.85156-1.6367 0.49609-2.4922-0.35156-0.85547-1.1875-1.4141-2.1133-1.4141h-11.965c-1.2656 0-2.2891 1.0234-2.2891 2.2891s1.0234 2.2891 2.2891 2.2891z"/>
  <path d="m100 62.914c0-3.5703-2.9062-6.4766-6.4766-6.4766h-13.453c1.0117-1.8477 1.0625-4.0664 0.10547-5.9922-1.1055-2.2109-3.3242-3.582-5.793-3.582h-39.184-0.011719c-1.6367 0-3.1992 0.61328-4.3984 1.7266-2.6211 2.4258-2.7773 6.5312-0.35156 9.1523l6.3984 6.9062-5.0781 2.5391c-1.3359 0.66797-2.3164 1.7539-2.9141 3.0039l-26.555 0.003906c-1.2656 0-2.2891 1.0273-2.2891 2.2891 0 1.2656 1.0234 2.2891 2.2891 2.2891h26.152c0.10938 0.37109 0.24219 0.74609 0.42188 1.1055 1.1055 2.2109 3.3281 3.5781 5.7969 3.5781 0.99609 0 1.9961-0.23438 2.8906-0.68359l12.801-6.3984c1.3555-0.67969 2.4219-1.8164 3.0273-3.1875h5.0508c-0.18359 1.2695-0.015626 2.5898 0.58984 3.8008 1.1055 2.2031 3.3281 3.5781 5.793 3.5781h26.324c3.5703 0 6.4766-2.9062 6.4766-6.4766 0-0.66016-0.13281-1.3008-0.32812-1.9219 1.6367-1.1758 2.7148-3.0859 2.7148-5.2539zm-51.695 5.3711l-12.801 6.3984c-0.91797 0.46484-2.0938 0.0625-2.5469-0.85156-0.46875-0.93359-0.085937-2.0781 0.85156-2.5469l10.535-5.2656-10.551-11.387c-0.71094-0.76953-0.66406-1.9727 0.10547-2.6875 0.35156-0.32422 0.80859-0.50391 1.293-0.50391h0.003906 39.188c0.72656 0 1.375 0.40234 1.6992 1.0508 0.32422 0.64844 0.25391 1.4062-0.17969 1.9883l-4.9023 6.5352h22.523c1.0508 0 1.8984 0.85156 1.8984 1.8984 0 1.0469-0.85156 1.8984-1.8984 1.8984h-26.324c-0.72656 0-1.375-0.40234-1.6992-1.0508-0.32422-0.64844-0.25391-1.4141 0.17969-1.9883l2.1523-2.8711c0.76172-1.0117 0.55469-2.4453-0.45312-3.2031-1.0156-0.75781-2.4453-0.55859-3.2031 0.46094l-2.1523 2.8711c-1.1875 1.582-1.5312 3.5547-1.0703 5.418l-0.125 0.17188h-7.2227c-0.28516-0.89453-0.75-1.7305-1.3984-2.4336l-5.8789-6.3477c-0.86328-0.93359-2.3086-0.98438-3.2344-0.12109-0.92578 0.85938-0.98438 2.3086-0.12109 3.2344l5.8789 6.3477c0.39453 0.42969 0.57031 1.0273 0.47266 1.6055v0.003906c0 0.003906 0.003906 0.003906 0.003906 0.007813-0.003906 0.003906 0 0.007812 0 0.011719-0.10938 0.57812-0.49219 1.0898-1.0234 1.3555zm42.828 3.707h-26.324c-0.72266 0-1.3789-0.40234-1.6992-1.0469-0.32422-0.64844-0.25781-1.4141 0.17578-1.9922l0.4375-0.58203c1.0156 0.64844 2.2109 1.0195 3.4766 1.0195h25.688c0.089843 0.22266 0.14453 0.45703 0.14453 0.70312 0 1.0469-0.85156 1.8984-1.8984 1.8984z"/>
 </g>
</svg>
