<?xml version="1.0" encoding="UTF-8"?>
<svg width="100pt" height="100pt" version="1.1" viewBox="0 0 100 100" xmlns="http://www.w3.org/2000/svg">
 <g fill-rule="evenodd">
  <path d="m36.957 37.5h58.125l-15.375 50h-58.164zm-3.5312-2.6953l-16.668 54.164c-0.41016 1.3398 0.58984 2.6992 1.9922 2.6992h62.5c0.91406 0 1.7227-0.59766 1.9922-1.4727l16.664-54.164c0.41406-1.3398-0.58984-2.6992-1.9883-2.6992h-62.5c-0.91406 0-1.7227 0.59766-1.9922 1.4727z"/>
  <path d="m0 33.332h8.332v4.168h-4.1641v4.168h-4.168z"/>
  <path d="m79.152 14.578l-11.785 11.785-2.9453-2.9492 8.8398-8.8359-8.8398-8.8398 2.9453-2.9453z"/>
  <path d="m0 91.668h8.332v-4.168h-4.1641v-4.168h-4.168z"/>
  <path d="m16.668 33.332h8.332v4.168h-8.332z"/>
  <path d="m0 50h4.168v8.332h-4.168z"/>
  <path d="m0 66.668h4.168v8.332h-4.168z"/>
  <path d="m20.832 12.5h54.168v4.168h-54.168z"/>
 </g>
</svg>
