<?xml version="1.0" encoding="UTF-8"?>
<svg width="100pt" height="100pt" version="1.1" viewBox="0 0 100 100" xmlns="http://www.w3.org/2000/svg">
 <g>
  <path d="m27.211 20.312 6.707-6.707-2.2109-2.2109-6.707 6.707-6.707-6.707-2.2109 2.2109 6.707 6.707-6.707 6.707 2.2109 2.2109 6.707-6.707 6.707 6.707 2.2109-2.2109z"/>
  <path d="m62.5 26.562c-4.9062 0-9.625 0.96875-14.062 2.8633v-23.176c0-2.5859-2.1016-4.6875-4.6875-4.6875h-37.5c-2.5859 0-4.6875 2.1016-4.6875 4.6875v28.125c0 2.5859 2.1016 4.6875 4.6875 4.6875h19.664l5.1445 5.1445c0.11328 0.11328 0.24219 0.20703 0.37109 0.30469-1.8477 3.1797-3.1797 6.5859-3.9766 10.176h-4.0156c-1.7227 0-3.125 1.4023-3.125 3.125v9.375c0 1.7227 1.4023 3.125 3.125 3.125h4.0117c3.6289 16.367 18.145 28.125 35.051 28.125 19.816 0 35.938-16.121 35.938-35.938s-16.121-35.938-35.938-35.938zm-35.289 9.375h-20.961c-0.86328 0-1.5625-0.69922-1.5625-1.5625v-28.125c0-0.86328 0.69922-1.5625 1.5625-1.5625h37.5c0.86328 0 1.5625 0.69922 1.5625 1.5625v28.125c0 0.86328-0.69922 1.5625-1.5625 1.5625h-9.375v5.6016c0 0.52734-0.73438 0.82813-1.1055 0.45703zm55.684 38.117-3.7461-3.7422h5.4531c-0.46094 1.3125-1.0391 2.5586-1.707 3.7422zm-6.8711-6.8672-2.5859-2.5859v-6.7891h15.625v9.375zm-9.375-9.375h3.6641v3.6641zm-3.125-3.125-12.574-12.574c3.4375-1.9453 7.3867-3.0508 11.551-3.0508 10.016 0 18.832 6.332 22.102 15.625zm-15.238-10.824 32.852 32.852c-1.2734 1.668-2.7578 3.1562-4.418 4.4219l-32.852-32.852c1.2734-1.668 2.7578-3.1562 4.418-4.4219zm25.762 39.023c-3.4336 1.9453-7.3828 3.0508-11.547 3.0508-10.016 0-18.832-6.332-22.102-15.625h21.078zm-31.941-31.941 3.7461 3.7422h-5.4531c0.46094-1.3125 1.0391-2.5586 1.707-3.7422zm6.8711 6.8672 9.375 9.375h-22.414v-9.375zm-16.164 9.375h-3.125v-9.375h3.125zm-9.375-9.375h3.125v9.375h-3.125zm39.062 37.5c-15.203 0-28.289-10.41-31.848-25h6.4766c3.4062 11.094 13.656 18.75 25.371 18.75s21.965-7.6562 25.371-18.75h1.1914c1.7227 0 3.125-1.4023 3.125-3.125v-9.375c0-1.7227-1.4023-3.125-3.125-3.125h-1.1914c-3.4062-11.094-13.656-18.75-25.371-18.75s-21.965 7.6562-25.371 18.75h-6.4688c0.82031-3.3594 2.1484-6.5508 3.9922-9.5039 1.6328-0.41406 2.8477-1.8828 2.8477-3.6445v-2.4766h6.25c2.5859 0 4.6875-2.1016 4.6875-4.6875v-1.5156c4.4062-2.0938 9.1289-3.1719 14.062-3.1719 18.094 0 32.812 14.719 32.812 32.812s-14.719 32.812-32.812 32.812z"/>
  <path d="m17.188 42.188h-3.125c0 0.875-0.33984 1.25-1.1055 2.0156-0.85156 0.85156-2.0195 2.0195-2.0195 4.2266 0 2.2109 1.168 3.3789 2.0195 4.2305 0.76562 0.76953 1.1055 1.1445 1.1055 2.0234s-0.33984 1.2578-1.1055 2.0234c-0.85156 0.85156-2.0195 2.0195-2.0195 4.2305h3.125c0-0.87891 0.33984-1.2578 1.1055-2.0234 0.85156-0.85156 2.0195-2.0195 2.0195-4.2305 0-2.2109-1.168-3.3789-2.0195-4.2305-0.76562-0.76562-1.1055-1.1406-1.1055-2.0234 0-0.875 0.33984-1.25 1.1055-2.0156 0.85156-0.85156 2.0195-2.0195 2.0195-4.2266z"/>
  <path d="m4.6875 60.938c0-0.87891 0.33984-1.2578 1.1055-2.0234 0.85156-0.85156 2.0195-2.0195 2.0195-4.2305 0-2.2109-1.168-3.3789-2.0195-4.2305-0.76562-0.76562-1.1055-1.1406-1.1055-2.0234 0-0.875 0.33984-1.25 1.1055-2.0156 0.85156-0.85156 2.0195-2.0195 2.0195-4.2266h-3.125c0 0.875-0.33984 1.25-1.1055 2.0156-0.85156 0.85156-2.0195 2.0195-2.0195 4.2266 0 2.2109 1.168 3.3789 2.0195 4.2305 0.76562 0.76953 1.1055 1.1445 1.1055 2.0234s-0.33984 1.2578-1.1055 2.0234c-0.85156 0.85156-2.0195 2.0195-2.0195 4.2305 0 3.4453 2.8047 6.25 6.25 6.25h6.25v-3.125h-6.25c-1.7227 0-3.125-1.4023-3.125-3.125z"/>
 </g>
</svg>
