<?xml version="1.0" encoding="UTF-8"?>
<svg width="100pt" height="100pt" version="1.1" viewBox="0 0 100 100" xmlns="http://www.w3.org/2000/svg">
 <g>
  <path d="m90.625 56.25h-3.125v37.5h-3.125v-54.688h-3.125v54.688h-3.125v-50h-3.125v50h-3.125v-37.5h-3.125v37.5h-3.125v-17.188h-3.125v17.188h-3.125v-18.75h-3.125v18.75h-3.125v-31.25h-3.125v31.25h-3.125v-34.375h-3.125v34.375h-3.125v-26.562h-3.125v26.562h-3.125v-9.375h-3.125v9.375h-3.125v-14.062h-3.125v14.062h-3.125v-20.312h-3.125v20.312h-3.125v-7.8125h-3.125v7.8125h-6.25v-90.625h-3.125v92.188c0 0.86328 0.69922 1.5625 1.5625 1.5625h92.188v-3.125h-6.25z"/>
  <path d="m78.953 24.109c-0.03125 0-0.046875 0.015625-0.0625 0.03125l-1.7188 2.6094c-0.015625 0.015625-0.015625 0.03125-0.015625 0.046875 0 0.03125 0.015625 0.046875 0.03125 0.0625l2.4688 1.6406c0.015625 0 0.03125 0.015625 0.046875 0.015625s0.046875-0.015625 0.0625-0.046875l1.7344-2.5938c0.015625-0.03125 0.015625-0.078125-0.015625-0.10938l-2.4844-1.6406c-0.015625-0.015625-0.03125-0.015625-0.046875-0.015625z"/>
  <path d="m83.172 23.312c0.015625 0 0.046875-0.015625 0.0625-0.03125l1.7344-2.6094c0.015625-0.03125 0.015625-0.078125-0.03125-0.10938l-2.4688-1.6406c-0.015625-0.015625-0.03125-0.015625-0.046875-0.015625-0.03125 0-0.046875 0.015625-0.0625 0.03125l-1.7344 2.6094c0 0.015625-0.015625 0.03125 0 0.0625 0 0.015625 0.015625 0.03125 0.03125 0.046875l2.4688 1.6406c0.015625 0.015625 0.03125 0.015625 0.046875 0.015625z"/>
  <path d="m75.484 29.312c-0.015625 0-0.046875 0.015625-0.046875 0.03125l-1.7344 2.6094c-0.03125 0.03125-0.015625 0.078125 0.015625 0.10938l2.4688 1.6406c0.015625 0 0.03125 0.015625 0.046875 0.015625h0.015625c0.015625-0.015625 0.03125-0.015625 0.046875-0.03125l1.7344-2.6094c0.03125-0.03125 0.015625-0.078125-0.015625-0.10938l-2.4688-1.6406c-0.03125-0.015625-0.046875-0.03125-0.0625-0.015625z"/>
  <path d="m13.941 75.602 6.6875-16.055 7.7578 11.633c0.28125 0.42187 0.74219 0.67969 1.2461 0.69531 0.55469 0.058594 0.98438-0.21094 1.293-0.60938l14.684-19.09 11.266 8.4492c0.34766 0.26172 0.78906 0.36719 1.2148 0.28906 0.42969-0.078124 0.80469-0.32812 1.0391-0.69531l15-23.438-2.6328-1.6836-14.094 22.02-11.152-8.3672c-0.68359-0.51562-1.6562-0.38281-2.1758 0.29688l-14.297 18.586-8.1641-12.25c-0.32031-0.48047-0.88281-0.74219-1.4531-0.6875-0.57422 0.054688-1.0703 0.42188-1.2891 0.95313l-7.8125 18.75z"/>
  <path d="m91.805 3.125h-3.918c-2.8008 0-5.0742 2.2734-5.0742 5.0703v2.7422h3.125v-2.7422c0-1.0703 0.875-1.9453 1.9453-1.9453h3.918c1.0742 0 1.9492 0.875 1.9492 1.9453 0 0.89453-0.60547 1.6719-1.4727 1.8906l-0.9375 0.23437c-2.2617 0.5625-3.8398 2.5898-3.8398 4.9219v1.9453h3.125v-1.9453c0-0.89453 0.60547-1.6719 1.4727-1.8906l0.9375-0.23437c2.2617-0.5625 3.8398-2.5898 3.8398-4.9219 0-2.7969-2.2734-5.0703-5.0703-5.0703z"/>
  <path d="m87.5 20.312h3.125v3.125h-3.125z"/>
  <path d="m14.062 7.8125h6.25v3.125h-6.25z"/>
  <path d="m23.438 7.8125h21.875v3.125h-21.875z"/>
  <path d="m14.062 14.062h6.25v3.125h-6.25z"/>
  <path d="m23.438 14.062h21.875v3.125h-21.875z"/>
  <path d="m14.062 20.312h6.25v3.125h-6.25z"/>
  <path d="m23.438 20.312h21.875v3.125h-21.875z"/>
 </g>
</svg>
