<?xml version="1.0" encoding="UTF-8"?>
<svg width="100pt" height="100pt" version="1.1" viewBox="0 0 100 100" xmlns="http://www.w3.org/2000/svg">
 <g>
  <path d="m96.969 64.09h-2.2734v21.062c0 5.3047-4.2422 9.5469-9.5469 9.5469-5.3047 0-9.5469-4.2422-9.5469-9.5469l0.003907-21.062h-2.4258v21.062c0 5.3047-4.2422 9.5469-9.5469 9.5469-5.3047 0-9.5469-4.2422-9.5469-9.5469l0.003906-21.062h-2.4258v21.062c0 5.3047-4.2422 9.5469-9.5469 9.5469-5.3047 0-9.5469-4.2422-9.5469-9.5469l0.003907-21.062h-2.4258c-0.75781 0-1.5156 0.60547-1.5156 1.5156l0.003907 31.363c0 0.75781 0.60547 1.5156 1.5156 1.5156h66.816c0.75781 0 1.5156-0.60547 1.5156-1.5156v-31.516c0-0.75781-0.75781-1.3633-1.5156-1.3633z"/>
  <path d="m77.426 58.637h1.0625v26.516c0 3.6367 2.8789 6.5156 6.5156 6.5156 3.6367 0 6.668-2.8789 6.668-6.5156l-0.003906-26.516h1.0625c0.75781 0 1.5156-0.60547 1.5156-1.5156v-5.9102c0-0.75781-0.60547-1.5156-1.5156-1.5156h-15.305c-0.75781 0-1.5156 0.60547-1.5156 1.5156v5.9102c0 0.91016 0.75781 1.5156 1.5156 1.5156zm3.9375 11.516h7.2734v15c0 1.9688-1.668 3.6367-3.6367 3.6367s-3.6367-1.668-3.6367-3.6367z"/>
  <path d="m63.637 91.668c3.6367 0 6.5156-2.8789 6.5156-6.5156v-26.516h1.0586c0.75781 0 1.5156-0.60547 1.5156-1.5156v-5.9102c0-0.75781-0.60547-1.5156-1.5156-1.5156h-15.301c-0.75781 0-1.5156 0.60547-1.5156 1.5156v5.9102c0 0.75781 0.60547 1.5156 1.5156 1.5156h1.0625v26.516c-0.003906 3.6367 3.0273 6.5156 6.6641 6.5156zm-3.7891-11.668h7.2734v5.1523c0 1.9688-1.668 3.6367-3.6367 3.6367s-3.6367-1.668-3.6367-3.6367z"/>
  <path d="m42.121 91.668c3.6367 0 6.668-2.8789 6.668-6.5156v-26.516h1.0625c0.75781 0 1.5156-0.60547 1.5156-1.5156v-5.9102c0-0.75781-0.60547-1.5156-1.5156-1.5156h-15.457c-0.75781 0-1.5156 0.60547-1.5156 1.5156v5.9102c0 0.75781 0.60547 1.5156 1.5156 1.5156h1.0625v26.516c-0.003906 3.6367 3.0273 6.5156 6.6641 6.5156zm-3.6367-17.73h7.2734v11.211c0 1.9688-1.668 3.6367-3.6367 3.6367s-3.6367-1.668-3.6367-3.6367z"/>
  <path d="m29.395 22.273v-7.7266c0-0.75781-0.60547-1.5156-1.5156-1.5156h-24.848c-0.75781 0-1.5156 0.60547-1.5156 1.5156v7.7266c0 0.75781 0.60547 1.5156 1.5156 1.5156h1.668l0.15234 36.969c0 5.9102 4.8477 10.758 10.758 10.758s10.758-4.8477 10.758-10.758v-36.969h1.668c0.75391 0 1.3594-0.75781 1.3594-1.5156zm-13.789 46.211v1.5156-1.5156c-4.3945 0-7.8789-3.4844-7.8789-7.8789v-18.789h15.605v18.637c0.15234 4.5469-3.332 8.0312-7.7266 8.0312z"/>
  <path d="m27.121 4.3945h25c5.6055 0 10 4.5469 10 10v32.574h2.8789v-32.422c0-7.1211-5.7578-13.031-13.031-13.031h-24.848c-5.6055 0-10.453 3.6367-12.273 8.6367h3.1836c1.6641-3.3359 5.1523-5.7578 9.0898-5.7578z"/>
  <path d="m67.879 46.668c0.75781 0.30469 1.668 0 1.9688-0.75781l4.5469-10.91c0.30469-0.75781 0-1.668-0.75781-1.9688-0.75781-0.30469-1.668 0-1.9688 0.75781l-4.5469 10.91c-0.30469 0.75391 0 1.6641 0.75781 1.9688z"/>
  <path d="m59.242 46.668c0.75781-0.30469 1.0625-1.2109 0.75781-1.9688l-4.5469-10.91c-0.30469-0.75781-1.2109-1.0625-1.9688-0.75781s-1.0625 1.2109-0.75781 1.9688l4.5469 10.91c0.30078 0.75781 1.2109 1.0586 1.9688 0.75781z"/>
 </g>
</svg>
