<?xml version="1.0" encoding="UTF-8"?>
<svg width="100pt" height="100pt" version="1.1" viewBox="0 0 100 100" xmlns="http://www.w3.org/2000/svg">
 <path d="m75.965 82.207c-1.9766-4.6992-3.1719-9.6211-3.1719-14.559 0-2.7969 0.62109-5.4766 1.8242-8.457 0.46875-1.1602 1.0156-2.3477 1.7383-3.8086 0.36328-0.73047 1.6602-3.2891 1.8945-3.7578 3.3789-6.7539 4.8398-11.48 4.8398-17.801 0-3.8516-0.77734-7.5859-2.2656-11.043-0.64062-1.4922 0.046875-3.2227 1.5391-3.8633 1.4922-0.64062 3.2227 0.046875 3.8672 1.5391 1.8008 4.1875 2.7383 8.7109 2.7383 13.367 0 7.4023-1.707 12.934-5.457 20.434-0.24609 0.49609-1.5391 3.0391-1.8828 3.7344-0.66406 1.3398-1.1523 2.3984-1.5586 3.4023-0.94141 2.3281-1.3945 4.293-1.3945 6.2539 0 4.0664 1.0156 8.2461 2.7109 12.277 0.60156 1.4219 1.2422 2.7227 1.8789 3.8672 0.375 0.66797 0.65625 1.125 0.80078 1.3398 1.0625 1.5977 0.33594 3.7734-1.4766 4.4062l-29.414 10.297c-1.5469 0.54297-3.2422-0.28906-3.7617-1.8477l-5.2109-15.637h-9.6445c-8.125 0-14.707-6.5742-14.707-14.711v-7.3477h-2.9414c-3.7031 0-5.957-3.3164-4.5781-6.7578l7.5195-18.809v-0.90625c0-18.676 15.152-33.82 33.82-33.82h1.4805c3.8008 0 7.5156 0.62891 11.039 1.8438 1.5352 0.52734 2.3477 2.2031 1.8203 3.7383-0.53125 1.5352-2.2031 2.3516-3.7422 1.8203-2.9023-1.0039-5.9727-1.5195-9.1172-1.5195h-1.4805c-15.422 0-27.938 12.512-27.938 27.938v1.4727c0 0.375-0.070313 0.74609-0.21094 1.0938l-7.207 18.023h4.4766c1.625 0 2.9414 1.3203 2.9414 2.9414v10.289c0 4.8867 3.9453 8.8281 8.8242 8.8281h11.766c1.2656 0 2.3906 0.8125 2.7891 2.0117l4.9375 14.816 23.27-8.1445c-0.4375-0.87109-0.89844-1.8594-1.3555-2.9453zm-4.6953-50.723c-0.27734-1.6016 0.79297-3.125 2.3945-3.4023 1.6016-0.27734 3.1211 0.79688 3.3984 2.3945 1.1484 6.5977-0.62109 13.246-4.8477 17.473-3.8125 3.8164-8.7227 3.6641-13.91 0.75391-3.2695-1.832-6.082-4.2578-9.9336-8.1055-3.8477-3.8477-6.2734-6.6602-8.1055-9.9297-2.9102-5.1875-3.0586-10.098 0.75391-13.914 3.5547-3.5547 8.8438-5.3906 14.426-5.1719 1.625 0.066407 2.8867 1.4297 2.8242 3.0547s-1.4297 2.8867-3.0547 2.8242c-4.0156-0.15625-7.7031 1.1211-10.035 3.4531-2.9648 2.9648-0.097657 8.0742 7.3516 15.523 7.4531 7.4531 12.562 10.316 15.523 7.3555 2.7969-2.7969 4.0469-7.5078 3.2148-12.309zm-7.5508-3.543h0.25c1.625 0 2.9414 1.3164 2.9414 2.9414s-1.3164 2.9414-2.9414 2.9414h-7.3516c-1.625 0-2.9414-1.3164-2.9414-2.9414v-7.3516c0-1.625 1.3164-2.9414 2.9414-2.9414s2.9414 1.3164 2.9414 2.9414v0.25l22.184-22.184c1.1484-1.1484 3.0117-1.1484 4.1602 0 1.1484 1.1484 1.1484 3.0117 0 4.1602z"/>
</svg>
