<?xml version="1.0" encoding="UTF-8"?>
<svg width="100pt" height="100pt" version="1.1" viewBox="0 0 100 100" xmlns="http://www.w3.org/2000/svg">
 <g>
  <path d="m50 38.789c-4.2422 0-7.7266 3.4844-7.7266 7.7266s3.4844 7.7266 7.7266 7.7266 7.7266-3.4844 7.7266-7.7266c0-4.3945-3.4844-7.7266-7.7266-7.7266z"/>
  <path d="m85.605 70.758-8.332-19.695c0.15234-0.75781 1.8164-2.7266 2.2734-3.332 0.75781-0.91016 1.0625-1.3633 1.0625-1.9688 0-41.816-73.789-33.184-59.09 7.7266l8.1836 22.727c2.7266 7.7266 2.7266 7.7266 2.5742 10.152-0.15234 1.668-0.30469 4.3945 0 10.605 0 0.75781 0.75781 1.3633 1.5156 1.3633l26.812-0.003907c0.91016 0 1.5156-0.60547 1.5156-1.5156v-10.91l1.5156 1.9688c3.332 4.2422 12.879 2.4258 12.879-8.7891v-6.3633h7.7266c0.45312 0 0.91016-0.30469 1.2109-0.75781 0.30469-0.14844 0.30469-0.75391 0.15234-1.207zm-15.453-21.516c0 0.75781-0.60547 1.5156-1.5156 1.5156l-2.5742 0.15234c-0.30469 1.2109-0.91016 2.5742-1.5156 3.6367l1.8164 1.9688c0.60547 0.60547 0.60547 1.5156 0 2.1211l-4.0898 4.0898c-0.60547 0.60547-1.5156 0.60547-2.1211 0l-1.9688-1.8164c-1.2109 0.60547-2.4258 1.2109-3.6367 1.5156l-0.15234 2.7266c0 0.75781-0.75781 1.5156-1.5156 1.5156h-5.7578c-0.75781 0-1.5156-0.60547-1.5156-1.5156l-0.15234-2.5781c-1.0625-0.30469-2.1211-0.75781-3.1836-1.2109-0.15234-0.15234-0.30469-0.15234-0.45312-0.30469l-1.9688 1.8164c-0.60547 0.60547-1.5156 0.45312-2.1211 0l-4.0898-4.0898c-0.60547-0.60547-0.60547-1.5156 0-2.1211l1.8164-1.9688c-0.60547-1.2109-1.2109-2.4258-1.5156-3.6367l-2.5742-0.15234c-0.75781 0-1.5156-0.75781-1.5156-1.5156v-5.7578c0-0.75781 0.60547-1.5156 1.5156-1.5156l2.5742-0.15234c0.30469-1.2109 0.91016-2.5742 1.5156-3.6367l-1.8164-1.9688c-0.60547-0.60547-0.60547-1.5156 0-2.1211l4.0898-4.0898c0.60547-0.60547 1.5156-0.60547 2.1211 0l1.9688 1.8164c1.2109-0.60547 2.4258-1.2109 3.6367-1.5156l0.15234-2.5742c0-0.75781 0.75781-1.5156 1.5156-1.5156h5.7578c0.75781 0 1.5156 0.60547 1.5156 1.5156l0.15234 2.5742c1.3633 0.30469 2.5742 0.91016 3.6367 1.5156l1.9688-1.8164c0.60547-0.60547 1.5156-0.45313 2.1211 0l4.0898 4.0898c0.60547 0.60547 0.60547 1.5156 0 2.1211l-1.8164 1.9688c0.60547 1.2109 1.2109 2.4258 1.5156 3.6367l2.5742 0.15234c0.75781 0 1.5156 0.75781 1.5156 1.5156z"/>
  <path d="m14.547 25c0.91016 0 1.5156-0.60547 1.5156-1.5156v-3.332l6.2109 6.2109c0.60547 0.60547 1.5156 0.60547 2.1211 0s0.60547-1.5156 0-2.1211l-6.2109-6.2109h3.332c0.91016 0 1.5156-0.60547 1.5156-1.5156s-0.60547-1.5156-1.5156-1.5156h-6.9688c-0.15234 0-0.45312 0-0.60547 0.15234-0.30469 0-0.60938 0.30078-0.75781 0.75781-0.15234 0.15234-0.15234 0.45312-0.15234 0.60547v6.9688c0 0.75781 0.60547 1.5156 1.5156 1.5156z"/>
  <path d="m77.727 26.211 6.2109-6.2109v3.332c0 0.91016 0.60547 1.5156 1.5156 1.5156s1.5156-0.60547 1.5156-1.5156v-6.9688c0-0.75781-0.75781-1.5156-1.5156-1.5156h-6.9688c-0.91016 0-1.5156 0.60547-1.5156 1.5156 0 0.91016 0.60547 1.5156 1.5156 1.5156h3.332l-6.2109 6.2109c-0.60547 0.60547-0.60547 1.5156 0 2.1211 0.60547 0.60547 1.668 0.60547 2.1211 0z"/>
  <path d="m46.062 9.0898 2.4219-2.4219v8.6367c0 0.91016 0.60547 1.5156 1.5156 1.5156s1.5156-0.60547 1.5156-1.5156v-8.6367l2.4219 2.4219c0.30469 0.30469 0.75781 0.45312 1.0625 0.45312 0.45312 0 0.75781-0.15234 1.0625-0.45312 0.60547-0.60547 0.60547-1.5156 0-2.1211l-5-5c-0.60547-0.60547-1.5156-0.60547-2.1211 0l-5.0039 5c-0.60547 0.60547-0.60547 1.5156 0 2.1211 0.60938 0.60547 1.668 0.60547 2.125 0z"/>
  <path d="m16.363 45.152h-8.7891l2.4258-2.4258c0.60547-0.60547 0.60547-1.5156 0-2.1211s-1.5156-0.60547-2.1211 0l-5 5c-0.60547 0.60547-0.60547 1.5156 0 2.1211l5 5c0.60547 0.60547 1.5156 0.60547 2.1211 0 0.60547-0.60547 0.60547-1.5156 0-2.1211l-2.4258-2.4219h8.6367c0.91016 0 1.5156-0.60547 1.5156-1.5156 0-0.91016-0.60547-1.5156-1.3633-1.5156z"/>
  <path d="m97.121 45.605-5-5c-0.60547-0.60547-1.5156-0.60547-2.1211 0s-0.60547 1.5156 0 2.1211l2.4258 2.4258h-8.6367c-0.91016 0-1.5156 0.60547-1.5156 1.5156 0 0.91016 0.60547 1.5156 1.5156 1.5156h8.6367l-2.4258 2.4258c-0.60547 0.60547-0.60547 1.5156 0 2.1211s1.5156 0.60547 2.1211 0l5-5c0.60547-0.60938 0.60547-1.5195 0-2.125z"/>
 </g>
</svg>
