<?xml version="1.0" encoding="UTF-8"?>
<svg width="100pt" height="100pt" version="1.1" viewBox="0 0 100 100" xmlns="http://www.w3.org/2000/svg">
 <g>
  <path d="m90.129 88.625h-19.336s15.828-16.605 16.355-17.281c1.9258-2.4648 1.7695-7.1055-0.23828-9.9961-2.3398-3.9141-7.4141-9.3398-15.355-14.191-0.09375-0.066406-37.969-22.113-37.969-22.113-0.085938-0.050781-0.14844-0.066407-0.23047-0.10547-0.13281-0.066406-0.44141-0.19531-0.46094-0.20312-1.7656-0.64453-3.8125-0.070313-4.9375 1.543-1.3398 1.9258-0.86719 4.5703 1.0547 5.9102l23.992 16.723c-1.1992 1.2617-2.6953 3.6055-2.6953 6.3945v20.727l-21.145 12.371c-0.19922 0.11719-0.34766 0.23047-0.46875 0.34375-1.7656 1.3633-2.3008 3.8438-1.1406 5.8203 0.83984 1.4336 2.3438 2.2305 3.8906 2.2305 0.77344 0 1.5547-0.19922 2.2695-0.61719l23.371-13.676c1.9375-1.2383 2.1797-3.2305 2.1836-3.25l2.1758-15.219c1.1719 0.48828 2.4375 1.1133 3.6133 1.8984 1.2422 0.82812 2.4766 1.9648 3.5664 3.0859l-12.453 19.75c-0.57812 0.87109-1.8672 2.4023-1.1406 5.6172 0.46484 2.0781 2.8516 3.9102 4.7695 3.9102h30.328c2.6719 0 4.8398-2.1602 4.8398-4.8438 0-2.6641-2.168-4.8281-4.8398-4.8281z"/>
  <path d="m48.93 56.051c0 5.0664-4.1055 9.1719-9.1719 9.1719-5.0664 0-9.1719-4.1055-9.1719-9.1719 0-5.0664 4.1055-9.1719 9.1719-9.1719 5.0664 0 9.1719 4.1055 9.1719 9.1719"/>
  <path d="m40.473 11.41c-0.007812-0.13281-0.011718-0.26953-0.011718-0.40234 0-5.4453-4.4297-9.875-9.8711-9.875h-11.789c-5.4453 0-9.875 4.4297-9.875 9.875v87.789h14.645v-87.789c0-1.9258 0.78125-3.6719 2.043-4.9414 0.13281 0.14453 0.26172 0.28516 0.39844 0.42969 1.125 1.1875 2.0977 2.2109 2.0977 4.5117 0 5.4453 4.4297 9.875 9.875 9.875h9.3789v-0.007812c0.039063 0 0.078125 0.007812 0.11719 0.007812 4.6133 0 8.6758-3.2695 9.6484-7.7734l0.375-1.7344zm-19.758-0.40234v84.934h-8.9336v-4.8008h6.1953v-2.9375h-6.1953v-4.8203h3.3867v-2.9375l-3.3867-0.003906v-4.8203h6.1953v-2.9414h-6.1953v-4.8203h3.3867l-0.003907-2.9375h-3.3828v-4.8203h6.1953v-2.9375l-6.1953-0.003906v-4.8203h3.3867v-2.9375l-3.3867-0.003906v-4.8242h6.1953v-2.9414l-6.1953 0.003907v-4.8203h3.3867v-2.9375l-3.3867-0.003906v-4.8242h6.1953v-2.9414h-6.1953v-4.8203h3.3867v-2.9414h-3.3867v-4.8242h6.1953v-2.9414h-6.1523c0.22266-3.6719 3.25-6.5977 6.9766-6.5977h4.8516c-1.8164 1.793-2.9375 4.2812-2.9375 7.0234zm17.27 7.0156c-3.8711 0-7.0195-3.1484-7.0195-7.0195 0-3.4414-1.6641-5.1953-2.8828-6.4766-0.015625-0.015625-0.027343-0.027344-0.039062-0.046875 0.79297-0.3125 1.6484-0.49609 2.5469-0.49609 3.8672 0 7.0156 3.1484 7.0156 7.0195 0 2.7422 1.1289 5.2266 2.9414 7.0195zm9.4961 0c-2.6953 0-5.043-1.5273-6.2188-3.7617l12.449-0.027344c-1.1875 2.2734-3.5781 3.7891-6.2305 3.7891z"/>
 </g>
</svg>
