<?xml version="1.0" encoding="UTF-8"?>
<svg width="100pt" height="100pt" version="1.1" viewBox="0 0 100 100" xmlns="http://www.w3.org/2000/svg">
 <g>
  <path d="m38.137 31.828 11.105-10.68c0.42578-0.40625 1.0938-0.40234 1.5117 0.003906l0.007813 0.007812 10.984 10.672 0.007812 0.007813 0.33594 0.30078c0.23828 0.21484 0.36328 0.51172 0.36328 0.80859h0.003906v15.809c0 0.60156-0.48828 1.0898-1.0898 1.0898h-22.742c-0.60156 0-1.0898-0.48828-1.0898-1.0898v-15.895c0-0.33594 0.15234-0.64062 0.39453-0.83984l0.20703-0.19922zm11.855-8.3828-10.273 9.8789v14.344h20.559v-14.234c-0.015625-0.011719-0.03125-0.027344-0.046875-0.042969z"/>
  <path d="m47.012 38.055h5.9766c0.60156 0 1.0898 0.48828 1.0898 1.0898v9.6289c0 0.60156-0.48828 1.0898-1.0898 1.0898h-5.9766c-0.60156 0-1.0898-0.48828-1.0898-1.0898v-9.6289c0-0.60156 0.48828-1.0898 1.0898-1.0898zm4.8867 2.1836h-3.793v7.4453h3.793z"/>
  <path d="m34.863 32.156c-0.43359 0.41406-1.125 0.39844-1.5391-0.039062-0.41406-0.43359-0.39844-1.125 0.039062-1.5391l15.887-15.086c0.42188-0.40234 1.082-0.39844 1.5 0l15.887 15.086c0.43359 0.41406 0.45312 1.1016 0.039062 1.5391-0.41406 0.43359-1.1016 0.45312-1.5391 0.039062l-15.137-14.375z"/>
  <path d="m20.207 66.77 11.105-10.68c0.42578-0.40625 1.0938-0.40234 1.5117 0.003906l0.007812 0.007812 10.984 10.672 0.007813 0.007812 0.33594 0.30078c0.23828 0.21484 0.36328 0.51172 0.36328 0.80859h0.003906v15.809c0 0.60156-0.48828 1.0898-1.0898 1.0898h-22.742c-0.60156 0-1.0898-0.48828-1.0898-1.0898v-15.895c0-0.33594 0.15234-0.64063 0.39453-0.83984l0.20703-0.19922zm11.855-8.3828-10.273 9.8789v14.344h20.559v-14.234c-0.015625-0.011719-0.03125-0.027344-0.046875-0.042969z"/>
  <path d="m29.082 72.996h5.9766c0.60156 0 1.0898 0.48828 1.0898 1.0898v9.6289c0 0.60156-0.48828 1.0898-1.0898 1.0898h-5.9766c-0.60156 0-1.0898-0.48828-1.0898-1.0898v-9.6289c0-0.60156 0.48828-1.0898 1.0898-1.0898zm4.8867 2.1836h-3.793v7.4453h3.793z"/>
  <path d="m16.934 67.098c-0.43359 0.41406-1.125 0.39844-1.5391-0.039062-0.41406-0.43359-0.39844-1.125 0.039063-1.5391l15.887-15.086c0.42188-0.40234 1.082-0.39844 1.5 0l15.887 15.086c0.43359 0.41406 0.45312 1.1016 0.039063 1.5391-0.41406 0.43359-1.1016 0.45312-1.5391 0.039062l-15.137-14.375z"/>
  <path d="m56.07 66.77 11.105-10.68c0.42578-0.40625 1.0938-0.40234 1.5117 0.003906l0.007812 0.007812 10.984 10.672 0.007812 0.007812 0.33594 0.30078c0.23828 0.21484 0.36328 0.51172 0.36328 0.80859h0.003906v15.809c0 0.60156-0.48828 1.0898-1.0898 1.0898h-22.742c-0.60156 0-1.0898-0.48828-1.0898-1.0898v-15.895c0-0.33594 0.15234-0.64063 0.39453-0.83984l0.20703-0.19922zm11.855-8.3828-10.273 9.8789v14.344h20.559v-14.234c-0.015626-0.011719-0.03125-0.027344-0.046876-0.042969z"/>
  <path d="m64.941 72.996h5.9766c0.60156 0 1.0898 0.48828 1.0898 1.0898v9.6289c0 0.60156-0.48828 1.0898-1.0898 1.0898h-5.9766c-0.60156 0-1.0898-0.48828-1.0898-1.0898v-9.6289c0-0.60156 0.48828-1.0898 1.0898-1.0898zm4.8867 2.1836h-3.793v7.4453h3.793z"/>
  <path d="m52.793 67.098c-0.43359 0.41406-1.125 0.39844-1.5391-0.039062-0.41406-0.43359-0.39844-1.125 0.039063-1.5391l15.887-15.086c0.42187-0.40234 1.082-0.39844 1.5 0l15.887 15.086c0.43359 0.41406 0.45312 1.1016 0.039063 1.5391-0.41406 0.43359-1.1016 0.45312-1.5391 0.039062l-15.137-14.375z"/>
  <path d="m17.52 0h64.957c9.6367 0 17.52 7.8828 17.52 17.52v64.957c0 9.6367-7.8828 17.52-17.52 17.52h-64.957c-9.6367 0-17.52-7.8828-17.52-17.52v-64.957c0-9.6367 7.8828-17.52 17.52-17.52zm0 4.3789h64.957c7.2266 0 13.141 5.9141 13.141 13.141v64.957c0 7.2266-5.9141 13.141-13.141 13.141h-64.957c-7.2266 0-13.141-5.9141-13.141-13.141v-64.957c0-7.2266 5.9141-13.141 13.141-13.141z" fill-rule="evenodd"/>
 </g>
</svg>
