<?xml version="1.0" encoding="UTF-8"?>
<svg width="100pt" height="100pt" version="1.1" viewBox="0 0 100 100" xmlns="http://www.w3.org/2000/svg">
 <g>
  <path d="m93.75 90.625h-3.125v3.125h-6.25v-3.125h-3.125v3.125h-6.25v-3.125h-3.125v3.125h-6.25v-3.125h-3.125v3.125h-6.25v-3.125h-3.125v3.125h-6.25v-3.125h-3.125v3.125h-6.25v-3.125h-3.125v3.125h-6.25v-3.125h-3.125v3.125h-6.25v-3.125h-3.125v3.125h-9.375v-9.375h3.125v-3.125h-3.125v-6.25h3.125v-3.125h-3.125v-6.25h3.125v-3.125h-3.125v-6.25h3.125v-3.125h-3.125v-6.25h3.125v-3.125h-3.125v-6.25h3.125v-3.125h-3.125v-6.25h3.125v-3.125h-3.125v-6.25h3.125v-3.125h-3.125v-6.25h3.125v-3.125h-3.125v-3.125h-3.125v92.188c0 0.86328 0.69922 1.5625 1.5625 1.5625h92.188v-3.125h-3.125z"/>
  <path d="m15.625 68.75c0 2.5859 2.1016 4.6875 4.6875 4.6875s4.6875-2.1016 4.6875-4.6875-2.1016-4.6875-4.6875-4.6875-4.6875 2.1016-4.6875 4.6875zm6.25 0c0 0.86328-0.70312 1.5625-1.5625 1.5625s-1.5625-0.69922-1.5625-1.5625 0.70312-1.5625 1.5625-1.5625 1.5625 0.69922 1.5625 1.5625z"/>
  <path d="m29.688 51.562c0-2.5859-2.1016-4.6875-4.6875-4.6875s-4.6875 2.1016-4.6875 4.6875 2.1016 4.6875 4.6875 4.6875 4.6875-2.1016 4.6875-4.6875zm-6.25 0c0-0.86328 0.70312-1.5625 1.5625-1.5625s1.5625 0.69922 1.5625 1.5625-0.70312 1.5625-1.5625 1.5625-1.5625-0.69922-1.5625-1.5625z"/>
  <path d="m90.625 23.438c0-2.5859-2.1016-4.6875-4.6875-4.6875s-4.6875 2.1016-4.6875 4.6875 2.1016 4.6875 4.6875 4.6875 4.6875-2.1016 4.6875-4.6875zm-6.25 0c0-0.86328 0.70312-1.5625 1.5625-1.5625s1.5625 0.69922 1.5625 1.5625-0.70312 1.5625-1.5625 1.5625-1.5625-0.69922-1.5625-1.5625z"/>
  <path d="m34.375 39.062c0 2.5859 2.1016 4.6875 4.6875 4.6875s4.6875-2.1016 4.6875-4.6875-2.1016-4.6875-4.6875-4.6875-4.6875 2.1016-4.6875 4.6875zm6.25 0c0 0.86328-0.70312 1.5625-1.5625 1.5625s-1.5625-0.69922-1.5625-1.5625 0.70312-1.5625 1.5625-1.5625 1.5625 0.69922 1.5625 1.5625z"/>
  <path d="m54.688 65.625c0 2.5859 2.1016 4.6875 4.6875 4.6875s4.6875-2.1016 4.6875-4.6875-2.1016-4.6875-4.6875-4.6875-4.6875 2.1016-4.6875 4.6875zm6.25 0c0 0.86328-0.70312 1.5625-1.5625 1.5625s-1.5625-0.69922-1.5625-1.5625 0.70312-1.5625 1.5625-1.5625 1.5625 0.69922 1.5625 1.5625z"/>
  <path d="m67.188 50c2.5859 0 4.6875-2.1016 4.6875-4.6875s-2.1016-4.6875-4.6875-4.6875-4.6875 2.1016-4.6875 4.6875 2.1016 4.6875 4.6875 4.6875zm0-6.25c0.85938 0 1.5625 0.69922 1.5625 1.5625s-0.70312 1.5625-1.5625 1.5625-1.5625-0.69922-1.5625-1.5625 0.70312-1.5625 1.5625-1.5625z"/>
  <path d="m59.375 18.75c0 2.5859 2.1016 4.6875 4.6875 4.6875s4.6875-2.1016 4.6875-4.6875-2.1016-4.6875-4.6875-4.6875-4.6875 2.1016-4.6875 4.6875zm6.25 0c0 0.86328-0.70312 1.5625-1.5625 1.5625s-1.5625-0.69922-1.5625-1.5625 0.70312-1.5625 1.5625-1.5625 1.5625 0.69922 1.5625 1.5625z"/>
  <path d="m95.77 2.0195-1.5742 1.5742c-0.60937-0.29297-1.2852-0.46875-2.0078-0.46875-2.5859 0-4.6875 2.1016-4.6875 4.6875 0 0.72266 0.17578 1.3984 0.46875 2.0078l-3.7188 3.7188c0.078125-0.33594 0.125-0.67969 0.125-1.0391 0-2.5859-2.1016-4.6875-4.6875-4.6875s-4.6875 2.1016-4.6875 4.6875 2.1016 4.6875 4.6875 4.6875c0.35938 0 0.70312-0.046875 1.0391-0.125l-6.8438 6.8438c-0.60937-0.29297-1.2852-0.46875-2.0078-0.46875-2.5859 0-4.6875 2.1016-4.6875 4.6875 0 0.72266 0.17578 1.3984 0.46875 2.0078l-5.2188 5.2188c-0.28906-2.3047-2.2422-4.1016-4.625-4.1016-2.5859 0-4.6875 2.1016-4.6875 4.6875 0 2.3828 1.7969 4.3359 4.1016 4.6289l-5.2188 5.2188c-0.60937-0.29688-1.2852-0.47266-2.0078-0.47266-2.5859 0-4.6875 2.1016-4.6875 4.6875 0 0.72266 0.17969 1.3984 0.46875 2.0078l-5.8906 5.8867c-0.26562-0.046875-0.54297-0.082031-0.82812-0.082031-2.5859 0-4.6875 2.1016-4.6875 4.6875 0 0.28516 0.035156 0.5625 0.085938 0.83203l-13.699 13.699c-0.61328-0.29297-1.2891-0.46875-2.0117-0.46875-2.5859 0-4.6875 2.1016-4.6875 4.6875 0 0.72266 0.17578 1.3984 0.46875 2.0078l-3.1367 3.1367 2.2109 2.2109 3.1367-3.1367c0.60937 0.29297 1.2852 0.46875 2.0078 0.46875 2.5859 0 4.6875-2.1016 4.6875-4.6875 0-0.72266-0.17578-1.3984-0.46875-2.0078l13.137-13.137c0.80859 0.66797 1.832 1.082 2.957 1.082 2.5859 0 4.6875-2.1016 4.6875-4.6875 0-1.1289-0.41406-2.1484-1.082-2.9609l5.3242-5.3242c0.60937 0.29297 1.2852 0.47266 2.0078 0.47266 2.5859 0 4.6875-2.1016 4.6875-4.6875 0-0.72266-0.17578-1.3984-0.46875-2.0078l15.648-15.648c0.60937 0.29297 1.2852 0.46875 2.0078 0.46875 2.5859 0 4.6875-2.1016 4.6875-4.6875 0-0.72266-0.17578-1.3984-0.46875-2.0078l14.086-14.086c0.60937 0.29297 1.2852 0.46875 2.0078 0.46875 2.5859 0 4.6875-2.1016 4.6875-4.6875 0-0.72266-0.17578-1.3984-0.46875-2.0078l1.5742-1.5742zm-17.645 10.48c0-0.86328 0.70312-1.5625 1.5625-1.5625s1.5625 0.69922 1.5625 1.5625-0.70312 1.5625-1.5625 1.5625-1.5625-0.69922-1.5625-1.5625zm-21.875 23.438c0-0.86328 0.70312-1.5625 1.5625-1.5625s1.5625 0.69922 1.5625 1.5625-0.70312 1.5625-1.5625 1.5625-1.5625-0.69922-1.5625-1.5625zm-37.5 46.875c-0.85938 0-1.5625-0.69922-1.5625-1.5625s0.70312-1.5625 1.5625-1.5625 1.5625 0.69922 1.5625 1.5625-0.70312 1.5625-1.5625 1.5625zm20.312-18.75c-0.85938 0-1.5625-0.69922-1.5625-1.5625s0.70312-1.5625 1.5625-1.5625 1.5625 0.69922 1.5625 1.5625-0.70312 1.5625-1.5625 1.5625zm10.938-12.5c-0.85938 0-1.5625-0.69922-1.5625-1.5625s0.70312-1.5625 1.5625-1.5625 1.5625 0.69922 1.5625 1.5625-0.70312 1.5625-1.5625 1.5625zm21.875-21.875c-0.85938 0-1.5625-0.69922-1.5625-1.5625s0.70312-1.5625 1.5625-1.5625 1.5625 0.69922 1.5625 1.5625-0.70312 1.5625-1.5625 1.5625zm20.312-20.312c-0.85938 0-1.5625-0.69922-1.5625-1.5625s0.70312-1.5625 1.5625-1.5625 1.5625 0.69922 1.5625 1.5625-0.70312 1.5625-1.5625 1.5625z"/>
 </g>
</svg>
