<?xml version="1.0" encoding="UTF-8"?>
<svg width="100pt" height="100pt" version="1.1" viewBox="0 0 100 100" xmlns="http://www.w3.org/2000/svg">
 <path d="m49.688 6.0117c-0.62891 0.089843-1.207 0.49609-1.4961 1.0625-1.0547 1.9844-2.5938 4.7539-3.8672 7.4688-1.2695 2.7031-2.4102 5.0898-2.3711 7.4688v0.03125c0.007813 1.5312 0.45312 2.8594 1.0938 3.9062-1.0273 0.57812-2.0898 1.3633-2.0898 3.0625v13.996h-17.973c-2.5117 0-5.5625 0.89063-8.207 2.9688-2.6445 2.0742-4.7734 5.4961-4.7734 10.031v7c0 5.1172 2.8398 9.6484 6.9883 12.094v10.344c0 1.668 0.48047 3.2383 1.3086 4.5625h-6.4883c-1.0469 0.050782-1.9531 1.0469-1.9023 2.0938 0.050782 1.0469 1.0469 1.957 2.0898 1.9062h75.883c1.0547 0.015626 2.0234-0.94141 2.0234-2 0-1.0547-0.96875-2.0156-2.0234-2h-6.3008c0.82812-1.3242 1.3086-2.8945 1.3086-4.5625v-10.344c4.1523-2.4414 6.9883-6.9766 6.9883-12.094v-7c0-4.5312-2.1289-7.9531-4.7734-10.031-2.6445-2.0742-5.6953-2.9688-8.207-2.9688h-17.973v-13.996c0-1.6992-1.0625-2.4844-2.0898-3.0625 0.63672-1.0469 1.0859-2.375 1.0938-3.9062v-0.03125c0.039062-2.3789-1.1016-4.7656-2.3711-7.4688-1.2773-2.7148-2.8125-5.4844-3.8672-7.4688-0.37109-0.71094-1.1992-1.1523-1.9961-1.0625zm0.25 6.3438c0.69922 1.332 1.3555 2.5391 1.9961 3.9062 1.2031 2.5547 2.0078 5.1641 1.9961 5.6875v0.0625c0 1.3125-0.42188 1.9258-0.90625 2.375-0.48438 0.44922-1.2148 0.62891-1.1562 0.625h-3.8672c0.0625 0.003906-0.67188-0.17578-1.1562-0.625s-0.90625-1.0625-0.90625-2.375v-0.0625c-0.011719-0.52344 0.79297-3.1289 1.9961-5.6875 0.64062-1.3672 1.2969-2.5703 1.9961-3.9062zm-2.9961 16.652h5.9922c0.83594 0 1.5312 0.19922 1.9023 0.40625 0.09375 0.050782 0.066406 0.054688 0.09375 0.09375v13.496h-9.9844v-13.496c0.027344-0.039062 0-0.042968 0.09375-0.09375 0.37109-0.20703 1.0703-0.40625 1.9023-0.40625zm-23.961 17.996h53.918c1.4688 0 3.8906 0.64062 5.7422 2.0938s3.2461 3.5586 3.2461 6.9062v7c0 5.4258-4.6055 10-9.9844 10h-1c-5.5859 0-9.9844-3.5703-9.9844-9 0.058593-1.0469-0.83984-2.0547-1.8867-2.1133s-2.0508 0.84375-2.1055 1.8945c-0.52734 4.8516-4.8242 8.2188-9.9844 8.2188h-1.9961c-5.1602 0-9.457-3.3672-9.9844-8.2188-0.054688-1.0469-1.0586-1.9492-2.1055-1.8945-1.0469 0.058594-1.9453 1.0625-1.8867 2.1133 0 5.4258-4.3984 9-9.9844 9h-1c-5.3789 0-9.9844-4.5703-9.9844-10v-7c0-3.3438 1.3945-5.4531 3.2461-6.9062 1.8516-1.4531 4.2734-2.0938 5.7422-2.0938zm14.383 22.996c2.5703 3.6328 6.8359 6 11.574 6h1.9961c4.7383 0 9.0039-2.3633 11.574-6 2.3711 4.2812 7.1445 7 12.387 7h1c1.0312 0 2.0234-0.125 2.9961-0.34375v8.7812c0 2.5625-1.9727 4.5625-4.4609 4.5625h-48.984c-2.4883 0-4.4609-2-4.4609-4.5625v-8.7812c0.97266 0.21875 1.9648 0.34375 2.9961 0.34375h1c5.2422 0 10.016-2.7188 12.387-7z"/>
</svg>
