<?xml version="1.0" encoding="UTF-8"?>
<svg width="100pt" height="100pt" version="1.1" viewBox="0 0 100 100" xmlns="http://www.w3.org/2000/svg">
 <path d="m53.449 43.102c-11.891 1.9453-17.84 10.109-17.84 24.488 0 7.418 1.4727 13.176 4.4141 17.277 2.9414 4.1016 6.3984 6.1523 10.379 6.1523 4.1016 0 7.4805-1.9688 10.133-5.9023 2.6484-3.9375 3.9766-9.3047 3.9766-16.098 0-9.7812-3.6875-18.418-11.062-25.918m-2.7383-2.8594c-2.0703-2.3203-4.9492-5.0977-8.6367-8.3281-4.0625-3.5625-6.7969-6.3594-8.207-8.3906-1.4062-2.0312-2.1133-4.2891-2.1133-6.7734 0-3.6445 1.6992-6.5039 5.0977-8.5781 3.3984-2.0703 7.832-3.1289 13.305-3.1719 5.4688 0 10.234 0.93359 14.297 2.7969s6.1094 4.4336 6.1523 7.707c0 1.5742-0.5 2.8789-1.4922 3.918-0.99219 1.0352-2.1523 1.5547-3.4805 1.5547-1.9062 0-4.1445-1.4297-6.7148-4.2891-2.6094-2.9023-4.8086-4.9297-6.5898-6.0938-1.7812-1.1602-3.8945-1.7617-6.3398-1.8008-3.0664 0-5.5742 0.68359-7.5195 2.0508s-2.9453 3.1055-2.9844 5.2227c0 1.9883 0.80859 3.8516 2.4258 5.5938 1.6133 1.7422 5.7773 4.9102 12.492 9.5117 7.168 4.9297 12.223 8.7852 15.164 11.559 2.9414 2.7773 5.3633 6.1523 7.2695 10.133 1.9062 3.9766 2.8398 8.1836 2.7969 12.617 0 7.7891-2.7344 14.648-8.207 20.57-5.4648 5.9258-11.887 8.9062-19.262 8.9492-6.6719 0-12.305-2.3828-16.906-7.1484-4.5977-4.7656-6.8984-11.129-6.8984-19.082 0-7.6641 2.5273-14.066 7.582-19.207 5.0547-5.1367 11.312-8.2461 18.77-9.3203"/>
</svg>
