<?xml version="1.0" encoding="UTF-8"?>
<svg width="100pt" height="100pt" version="1.1" viewBox="0 0 100 100" xmlns="http://www.w3.org/2000/svg">
 <path d="m30.781 20.969c-1.0312 0.11328-1.8047 0.99609-1.7812 2.0312v25.156l-6.6875-5.6875c-0.41016-0.36719-0.95312-0.54688-1.5-0.5-0.8125 0.0625-1.5039 0.61328-1.75 1.3867-0.24609 0.77734 0 1.625 0.625 2.1445l10 8.5312c0.75391 0.65625 1.8711 0.65625 2.625 0l10-8.5312c0.40234-0.34766 0.64844-0.83984 0.6875-1.3711s-0.13672-1.0547-0.48438-1.457-0.83984-0.64844-1.3711-0.6875-1.0547 0.13672-1.457 0.48438l-6.6875 5.6875v-25.156c0.011719-0.57422-0.22266-1.1289-0.64844-1.5195-0.42578-0.38672-0.99609-0.57422-1.5703-0.51172zm38 0c-1.0312 0.11328-1.8047 0.99609-1.7812 2.0312v25.156l-6.6875-5.6875c-0.41016-0.36719-0.95312-0.54688-1.5-0.5-0.8125 0.0625-1.5039 0.61328-1.75 1.3867-0.24609 0.77734 0 1.625 0.625 2.1445l10 8.5312c0.75391 0.65625 1.8711 0.65625 2.625 0l10-8.5312c0.40234-0.34766 0.64844-0.83984 0.6875-1.3711s-0.13672-1.0547-0.48438-1.457-0.83984-0.64844-1.3711-0.6875-1.0547 0.13672-1.457 0.48438l-6.6875 5.6875v-25.156c0.011719-0.57422-0.22266-1.1289-0.64844-1.5195-0.42578-0.38672-0.99609-0.57422-1.5703-0.51172zm-19 4c-1.0312 0.11328-1.8047 0.99609-1.7812 2.0312v35.469l-6.6562-5.9688c-0.39844-0.36719-0.92578-0.55859-1.4688-0.53125-0.8125 0.042969-1.5195 0.57031-1.7891 1.3398-0.26563 0.76953-0.042969 1.6211 0.57031 2.1602l10 9c0.76172 0.69141 1.9258 0.69141 2.6875 0l10-9c0.8125-0.74219 0.875-2.0039 0.13281-2.8242-0.73828-0.81641-2-0.88281-2.8203-0.14453l-6.6562 5.9688v-35.469c0.011719-0.57422-0.22266-1.1289-0.64844-1.5195-0.42578-0.38672-0.99609-0.57422-1.5703-0.51172zm-34 30c-1.0312 0.11328-1.8047 0.99609-1.7812 2.0312v16c0 3.2891 2.7109 6 6 6h60c3.2891 0 6-2.7109 6-6v-16c0.007812-0.53516-0.19922-1.0508-0.57422-1.4336-0.37891-0.37891-0.89062-0.59375-1.4258-0.59375s-1.0469 0.21484-1.4258 0.59375c-0.375 0.38281-0.58203 0.89844-0.57422 1.4336v16c0 1.1445-0.85547 2-2 2h-60c-1.1445 0-2-0.85547-2-2v-16c0.011719-0.57422-0.22266-1.1289-0.64844-1.5195-0.42578-0.38672-0.99609-0.57422-1.5703-0.51172z"/>
</svg>
