<?xml version="1.0" encoding="UTF-8"?>
<svg width="100pt" height="100pt" version="1.1" viewBox="0 0 100 100" xmlns="http://www.w3.org/2000/svg">
 <g>
  <path d="m45.312 78.125c15.508 0 28.125-12.617 28.125-28.125s-12.617-28.125-28.125-28.125-28.125 12.617-28.125 28.125 12.617 28.125 28.125 28.125zm25-28.125c0 12.457-9.1602 22.816-21.098 24.695-12.039-1.8906-21.09-12.465-21.09-24.695s9.0508-22.805 21.09-24.695c11.938 1.8789 21.098 12.238 21.098 24.695zm-31.719-24.082c-8.4375 5.0938-13.594 14.227-13.594 24.082s5.1562 18.988 13.594 24.082c-7.0586-1.9688-12.898-6.9414-15.977-13.594-3.0742-6.6523-3.0742-14.324 0-20.977 3.0781-6.6523 8.918-11.625 15.977-13.594z"/>
  <path d="m4.6875 62.5h8.5977c0.17188 0.44141 0.35156 0.87891 0.54297 1.3086l-6.082 6.0781c-0.29297 0.29297-0.45703 0.69141-0.45703 1.1055 0 0.41406 0.16406 0.8125 0.45703 1.1055l15.469 15.469c0.29297 0.29297 0.69141 0.45703 1.1055 0.45703h8.4922v2.6016c0 0.41406 0.16406 0.8125 0.45703 1.1055s0.69141 0.45703 1.1055 0.45703h31.25c0.41406 0 0.8125-0.16406 1.1055-0.45703s0.45703-0.69141 0.45703-1.1055v-2.6016h8.4922c0.41406 0 0.8125-0.16406 1.1055-0.45703l15.469-15.469c0.29297-0.29297 0.45703-0.69141 0.45703-1.1055 0-0.41406-0.16406-0.8125-0.45703-1.1055l-6.0781-6.0781c0.1875-0.42969 0.37109-0.86719 0.54297-1.3086h8.5938c0.41406 0 0.8125-0.16406 1.1055-0.45703s0.45703-0.69141 0.45703-1.1055v-21.875c0-0.41406-0.16406-0.8125-0.45703-1.1055s-0.69141-0.45703-1.1055-0.45703h-8.5977c-0.17188-0.44141-0.35156-0.87891-0.54297-1.3086l6.0781-6.0781h0.003906c0.29297-0.29297 0.45703-0.69141 0.45703-1.1055 0-0.41406-0.16406-0.8125-0.45703-1.1055l-15.469-15.469c-0.29297-0.29297-0.69141-0.45703-1.1055-0.45703h-8.4922v-2.6016c0-0.41406-0.16406-0.8125-0.45703-1.1055s-0.69141-0.45703-1.1055-0.45703h-31.25c-0.41406 0-0.8125 0.16406-1.1055 0.45703s-0.45703 0.69141-0.45703 1.1055v2.6016h-8.4922c-0.41406 0-0.8125 0.16406-1.1055 0.45703l-15.469 15.469c-0.29297 0.29297-0.45703 0.69141-0.45703 1.1055 0 0.41406 0.16406 0.8125 0.45703 1.1055l6.0781 6.0781c-0.1875 0.42969-0.37109 0.86719-0.54297 1.3086h-8.5938c-0.41406 0-0.8125 0.16406-1.1055 0.45703s-0.45703 0.69141-0.45703 1.1055v21.875c0 0.41406 0.16406 0.8125 0.45703 1.1055s0.69141 0.45703 1.1055 0.45703zm23.406 22.398 3.4102-3.4102c0.42969 0.1875 0.86719 0.37109 1.3086 0.54297v2.8672zm29.719 4.1641v-7.0352c0.44141-0.17188 0.87891-0.35156 1.3086-0.54297l4.9414 4.9414v2.6367zm31.125-18.07-13.906 13.906h-4.9531l12.801-12.801c0.29297-0.29297 0.45703-0.69141 0.45703-1.1055 0-0.41406-0.16406-0.8125-0.45703-1.1055l-6.0781-6.0781c0.1875-0.42969 0.37109-0.86719 0.54297-1.3086h5.9922c-0.14453 0.32812-0.28906 0.65234-0.44141 0.97266h-0.003906c-0.28516 0.59766-0.16406 1.3086 0.30469 1.7773zm4.8125-11.617h-6.25v-18.75h6.25zm-4.8125-30.367-5.7422 5.7422c-0.46875 0.46875-0.58984 1.1797-0.30469 1.7773 0.15234 0.32031 0.29688 0.64453 0.44141 0.97266h-5.9922c-0.17188-0.44141-0.35156-0.87891-0.54297-1.3086l6.0781-6.0781h0.003906c0.29297-0.29297 0.45703-0.69141 0.45703-1.1055 0-0.41406-0.16406-0.8125-0.45703-1.1055l-12.801-12.801h4.9531zm-24.875-15.434-4.9414 4.9375c-0.42969-0.1875-0.86719-0.36719-1.3086-0.53906v-7.0352h6.25zm-31.25 1.5312v2.8672c-0.44141 0.17188-0.87891 0.35156-1.3086 0.54297l-3.4102-3.4141zm-26.562 25.52h8.1211c0.66016 0 1.25-0.41797 1.4727-1.043 0.36719-1.0391 0.78906-2.0586 1.2656-3.0547 0.28516-0.59766 0.16406-1.3086-0.30469-1.7773l-5.7422-5.7422 13.258-13.258 5.7422 5.7422c0.46875 0.46875 1.1797 0.58984 1.7773 0.30469 0.99609-0.47656 2.0156-0.89844 3.0547-1.2656 0.625-0.22266 1.043-0.8125 1.043-1.4727v-8.1211h18.75v8.1211c0 0.66016 0.41797 1.25 1.043 1.4727 1.0391 0.36719 2.0586 0.78906 3.0547 1.2656 0.59766 0.28516 1.3086 0.16406 1.7773-0.30469l5.7422-5.7422 13.258 13.258-5.7422 5.7422c-0.46875 0.46875-0.58984 1.1797-0.30469 1.7773 0.47656 0.99609 0.89844 2.0156 1.2656 3.0547 0.22266 0.625 0.8125 1.043 1.4727 1.043h8.1211v18.75h-8.1211c-0.66016 0-1.25 0.41797-1.4727 1.043-0.36719 1.0391-0.78906 2.0586-1.2656 3.0547-0.28516 0.59766-0.16406 1.3086 0.30469 1.7773l5.7422 5.7422-13.258 13.258-5.7422-5.7422c-0.46875-0.46875-1.1797-0.58984-1.7773-0.30469-0.99609 0.47656-2.0156 0.89844-3.0547 1.2656-0.625 0.22266-1.043 0.8125-1.043 1.4727v8.1211h-18.75v-8.1211c0-0.66016-0.41797-1.25-1.043-1.4727-1.0391-0.36719-2.0586-0.78906-3.0547-1.2656-0.59766-0.28516-1.3086-0.16406-1.7773 0.30469l-5.7422 5.7422-13.258-13.258 5.7422-5.7422c0.46875-0.46875 0.58984-1.1797 0.30469-1.7773-0.47656-0.99609-0.89844-2.0156-1.2656-3.0547-0.22266-0.625-0.8125-1.043-1.4727-1.043h-8.1211z"/>
  <path d="m36.395 44.207-4.6875 4.6875c-0.29297 0.29297-0.45703 0.69141-0.45703 1.1055s0.16406 0.8125 0.45703 1.1055l4.6875 4.6875 2.2109-2.2109-3.582-3.582 3.582-3.582z"/>
  <path d="m54.23 55.793 4.6875-4.6875c0.29297-0.29297 0.45703-0.69141 0.45703-1.1055s-0.16406-0.8125-0.45703-1.1055l-4.6875-4.6875-2.2109 2.2109 3.582 3.582-3.582 3.582z"/>
  <path d="m40.707 58.883 6.25-18.75 2.9648 0.98828-6.25 18.75z"/>
 </g>
</svg>
